<svg width="55" height="36" viewBox="0 0 55 36" fill="none" xmlns="http://www.w3.org/2000/svg">
<path d="M27.1797 18.0078V30.5C26.7578 31.125 26.0859 31.8281 25.1641 32.6094C24.2422 33.375 22.9688 34.0469 21.3438 34.625C19.7344 35.1875 17.6562 35.4688 15.1094 35.4688C13.0312 35.4688 11.1172 35.1094 9.36719 34.3906C7.63281 33.6562 6.125 32.5938 4.84375 31.2031C3.57812 29.7969 2.59375 28.0938 1.89062 26.0938C1.20312 24.0781 0.859375 21.7969 0.859375 19.25V16.6016C0.859375 14.0547 1.15625 11.7812 1.75 9.78125C2.35938 7.78125 3.25 6.08594 4.42188 4.69531C5.59375 3.28906 7.03125 2.22656 8.73438 1.50781C10.4375 0.773438 12.3906 0.40625 14.5938 0.40625C17.2031 0.40625 19.3828 0.859375 21.1328 1.76562C22.8984 2.65625 24.2734 3.89063 25.2578 5.46875C26.2578 7.04688 26.8984 8.84375 27.1797 10.8594H22.6562C22.4531 9.625 22.0469 8.5 21.4375 7.48438C20.8438 6.46875 19.9922 5.65625 18.8828 5.04688C17.7734 4.42187 16.3438 4.10938 14.5938 4.10938C13.0156 4.10938 11.6484 4.39844 10.4922 4.97656C9.33594 5.55469 8.38281 6.38281 7.63281 7.46094C6.88281 8.53906 6.32031 9.84375 5.94531 11.375C5.58594 12.9062 5.40625 14.6328 5.40625 16.5547V19.25C5.40625 21.2188 5.63281 22.9766 6.08594 24.5234C6.55469 26.0703 7.21875 27.3906 8.07812 28.4844C8.9375 29.5625 9.96094 30.3828 11.1484 30.9453C12.3516 31.5078 13.6797 31.7891 15.1328 31.7891C16.7422 31.7891 18.0469 31.6562 19.0469 31.3906C20.0469 31.1094 20.8281 30.7812 21.3906 30.4062C21.9531 30.0156 22.3828 29.6484 22.6797 29.3047V21.6641H14.7812V18.0078H27.1797ZM42.565 20.0234H33.7994L33.7525 15.1953H41.1119C42.4088 15.1953 43.4713 15.0312 44.2994 14.7031C45.1275 14.3594 45.7447 13.8672 46.1509 13.2266C46.5728 12.5703 46.7838 11.7734 46.7838 10.8359C46.7838 9.77344 46.5806 8.91406 46.1744 8.25781C45.7838 7.60156 45.1666 7.125 44.3228 6.82812C43.4947 6.53125 42.4244 6.38281 41.1119 6.38281H36.2369V35H29.2056V0.875H41.1119C43.0963 0.875 44.8697 1.0625 46.4322 1.4375C48.0103 1.8125 49.3463 2.38281 50.44 3.14844C51.5338 3.91406 52.3697 4.88281 52.9478 6.05469C53.5259 7.21094 53.815 8.58594 53.815 10.1797C53.815 11.5859 53.4947 12.8828 52.8541 14.0703C52.2291 15.2578 51.2369 16.2266 49.8775 16.9766C48.5338 17.7266 46.7759 18.1406 44.6041 18.2188L42.565 20.0234ZM42.2603 35H31.8775L34.6197 29.5156H42.2603C43.4947 29.5156 44.5025 29.3203 45.2838 28.9297C46.065 28.5234 46.6431 27.9766 47.0181 27.2891C47.3931 26.6016 47.5806 25.8125 47.5806 24.9219C47.5806 23.9219 47.4088 23.0547 47.065 22.3203C46.7369 21.5859 46.2056 21.0234 45.4713 20.6328C44.7369 20.2266 43.7681 20.0234 42.565 20.0234H35.7916L35.8384 15.1953H44.2759L45.8931 17.0938C47.9713 17.0625 49.6431 17.4297 50.9088 18.1953C52.19 18.9453 53.1197 19.9219 53.6978 21.125C54.2916 22.3281 54.5884 23.6172 54.5884 24.9922C54.5884 27.1797 54.1119 29.0234 53.1588 30.5234C52.2056 32.0078 50.8072 33.125 48.9634 33.875C47.1353 34.625 44.9009 35 42.2603 35Z" fill="#372213"/>
</svg>
